<svg width="24" height="24" viewBox="0 0 24 24" fill="none" xmlns="http://www.w3.org/2000/svg">
<path d="M6.43152 7.05653L17.5685 18.1935L6.43152 7.05653ZM16.773 6.26104C17.2123 5.8217 17.9246 5.8217 18.3639 6.26104C18.8033 6.70038 18.8033 7.41269 18.3639 7.85203L13.5905 12.6245L18.3639 17.398C18.8033 17.8373 18.8033 18.5496 18.3639 18.989C17.9246 19.4283 17.2123 19.4283 16.773 18.989L11.9995 14.2155L7.22701 18.989C6.81906 19.3969 6.17573 19.4261 5.73415 19.0764L5.63602 18.989C5.19668 18.5496 5.19668 17.8373 5.63602 17.398L10.4085 12.6245L5.63602 7.85203C5.19668 7.41269 5.19668 6.70038 5.63602 6.26104C6.07536 5.8217 6.78767 5.8217 7.22701 6.26104L11.9995 11.0335L16.773 6.26104Z" fill="white"/>
</svg>
