<svg id="圖層_1" data-name="圖層 1" xmlns="http://www.w3.org/2000/svg" viewBox="0 0 273.03 248.72"><defs><style>.cls-1{fill:none;stroke:#fcfafa;stroke-miterlimit:10;}</style></defs><path class="cls-1" d="M181.87.64H91.13A45.27,45.27,0,0,0,51.92,23.28L6.55,101.86a45.27,45.27,0,0,0,0,45.28l45.37,78.58a45.27,45.27,0,0,0,39.21,22.64h90.74a45.27,45.27,0,0,0,39.21-22.64l45.37-78.58a45.27,45.27,0,0,0,0-45.28L221.08,23.28A45.27,45.27,0,0,0,181.87.64Z" transform="translate(0.02 -0.14)"/><path class="cls-1" d="M217.43,27.71A43.17,43.17,0,0,0,180.09,6L93.54,5.79A43.19,43.19,0,0,0,56.08,27.28L12.6,102.13a43.17,43.17,0,0,0-.11,43.18l43.08,75.08a43.17,43.17,0,0,0,37.34,21.69l86.55.23a43.19,43.19,0,0,0,37.46-21.49L260.4,146a43.17,43.17,0,0,0,.11-43.18Z" transform="translate(0.02 -0.14)"/><path class="cls-1" d="M213.79,32.15A41.09,41.09,0,0,0,178.31,11.4L96,10.94A41.09,41.09,0,0,0,60.24,31.29l-41.58,71.1a41.09,41.09,0,0,0-.23,41.09l40.78,71.57a41.1,41.1,0,0,0,35.48,20.74l82.36.47a41.11,41.11,0,0,0,35.71-20.35l41.58-71.1a41.11,41.11,0,0,0,.23-41.1Z" transform="translate(0.02 -0.14)"/><path class="cls-1" d="M210.14,36.58a39,39,0,0,0-33.6-19.8l-78.18-.69a39,39,0,0,0-34,19.2L24.71,102.65a39,39,0,0,0-.34,39l38.49,68.05a39,39,0,0,0,33.6,19.8l78.18.69a39,39,0,0,0,34-19.2l39.69-67.36a39,39,0,0,0,.34-39Z" transform="translate(0.02 -0.14)"/><path class="cls-1" d="M206.5,41a37,37,0,0,0-31.74-18.86l-74-.92A36.92,36.92,0,0,0,68.56,39.3L30.77,102.92a36.9,36.9,0,0,0-.46,36.91L66.5,204.37a36.93,36.93,0,0,0,31.74,18.86l74,.92a36.92,36.92,0,0,0,32.2-18.06l37.79-63.61a36.92,36.92,0,0,0,.46-36.92Z" transform="translate(0.02 -0.14)"/><path class="cls-1" d="M202.85,45.46A34.84,34.84,0,0,0,173,27.54l-69.81-1.15A34.83,34.83,0,0,0,72.72,43.3l-35.9,59.88A34.8,34.8,0,0,0,36.25,138l33.9,61A34.84,34.84,0,0,0,100,217l69.81,1.15a34.83,34.83,0,0,0,30.45-16.91l35.9-59.88a34.8,34.8,0,0,0,.57-34.82Z" transform="translate(0.02 -0.14)"/><path class="cls-1" d="M199.2,49.89a32.74,32.74,0,0,0-28-17l-65.62-1.38A32.72,32.72,0,0,0,76.89,47.31l-34,56.13a32.74,32.74,0,0,0-.69,32.74L73.8,193.7a32.71,32.71,0,0,0,28,17l65.62,1.39a32.74,32.74,0,0,0,28.69-15.77l34-56.13a32.74,32.74,0,0,0,.69-32.74Z" transform="translate(0.02 -0.14)"/><path class="cls-1" d="M195.56,54.33a30.67,30.67,0,0,0-26.14-16L108,36.69A30.65,30.65,0,0,0,81.05,51.31L48.93,103.7a30.66,30.66,0,0,0-.8,30.65l29.31,54a30.66,30.66,0,0,0,26.14,16L165,206A30.64,30.64,0,0,0,192,191.37L224.07,139a30.66,30.66,0,0,0,.8-30.65Z" transform="translate(0.02 -0.14)"/><path class="cls-1" d="M191.91,58.76a28.57,28.57,0,0,0-24.27-15.08L110.4,41.84A28.56,28.56,0,0,0,85.21,55.32L55,104a28.56,28.56,0,0,0-.92,28.56l27,50.49a28.57,28.57,0,0,0,24.27,15.08L162.6,200a28.56,28.56,0,0,0,25.19-13.48L218,137.82a28.56,28.56,0,0,0,.92-28.56Z" transform="translate(0.02 -0.14)"/><path class="cls-1" d="M188.27,63.2a26.48,26.48,0,0,0-22.41-14.13L112.81,47A26.49,26.49,0,0,0,89.37,59.32L61,104.23a26.48,26.48,0,0,0-1,26.47l24.72,47a26.49,26.49,0,0,0,22.41,14.14l53.05,2.07a26.49,26.49,0,0,0,23.44-12.33L212,136.65a26.48,26.48,0,0,0,1-26.47Z" transform="translate(0.02 -0.14)"/><path class="cls-1" d="M184.62,67.63a24.4,24.4,0,0,0-20.54-13.18l-48.86-2.31A24.4,24.4,0,0,0,93.53,63.33L67.1,104.49A24.41,24.41,0,0,0,66,128.87l22.43,43.48a24.4,24.4,0,0,0,20.54,13.18l48.86,2.31a24.4,24.4,0,0,0,21.69-11.19l26.43-41.16a24.41,24.41,0,0,0,1.15-24.38Z" transform="translate(0.02 -0.14)"/><path class="cls-1" d="M181,72.07a22.33,22.33,0,0,0-18.67-12.24l-44.68-2.54a22.3,22.3,0,0,0-19.94,10L73.15,104.76a22.36,22.36,0,0,0-1.27,22.29L92,167a22.33,22.33,0,0,0,18.67,12.24l44.68,2.54a22.33,22.33,0,0,0,19.94-10l24.54-37.42A22.36,22.36,0,0,0,201.12,112Z" transform="translate(0.02 -0.14)"/><path class="cls-1" d="M177.33,76.5a20.25,20.25,0,0,0-16.8-11.29L120,62.44a20.25,20.25,0,0,0-18.19,8.9L79.21,105a20.24,20.24,0,0,0-1.39,20.2l17.85,36.45a20.26,20.26,0,0,0,16.8,11.3L153,175.74a20.27,20.27,0,0,0,18.19-8.9l22.64-33.68a20.24,20.24,0,0,0,1.39-20.2Z" transform="translate(0.02 -0.14)"/><path class="cls-1" d="M173.68,80.94a18.15,18.15,0,0,0-14.93-10.35l-36.3-3A18.18,18.18,0,0,0,106,75.34L85.26,105.28a18.17,18.17,0,0,0-1.5,18.11l15.56,32.94a18.18,18.18,0,0,0,14.93,10.36l36.3,3A18.19,18.19,0,0,0,167,161.93L187.74,132a18.17,18.17,0,0,0,1.5-18.11Z" transform="translate(0.02 -0.14)"/><path class="cls-1" d="M170,85.38A16.09,16.09,0,0,0,157,76l-32.11-3.23a16.1,16.1,0,0,0-14.69,6.61l-18.85,26.2a16.11,16.11,0,0,0-1.62,16L103,151A16.1,16.1,0,0,0,116,160.4l32.11,3.24A16.13,16.13,0,0,0,162.83,157l18.85-26.19a16.13,16.13,0,0,0,1.62-16Z" transform="translate(0.02 -0.14)"/><path class="cls-1" d="M166.39,89.81a14,14,0,0,0-11.2-8.46l-27.93-3.46a14,14,0,0,0-12.93,5.47l-17,22.45a14.05,14.05,0,0,0-1.73,13.93l11,25.92a14,14,0,0,0,11.2,8.46l27.93,3.46a14,14,0,0,0,12.93-5.47l17-22.45a14.05,14.05,0,0,0,1.73-13.93Z" transform="translate(0.02 -0.14)"/><path class="cls-1" d="M162.75,94.25a12,12,0,0,0-9.34-7.52L129.67,83a12,12,0,0,0-11.18,4.32l-15.06,18.71a12,12,0,0,0-1.85,11.85l8.67,22.4a12,12,0,0,0,9.34,7.52l23.74,3.69a12,12,0,0,0,11.18-4.32l15.06-18.71a12,12,0,0,0,1.85-11.85Z" transform="translate(0.02 -0.14)"/><path class="cls-1" d="M159.1,98.68a10,10,0,0,0-7.47-6.57l-19.55-3.93a10,10,0,0,0-9.42,3.19l-13.18,15a10,10,0,0,0-2,9.76L113.9,135a10,10,0,0,0,7.47,6.58l19.55,3.92a9.93,9.93,0,0,0,9.42-3.18l13.18-15a10,10,0,0,0,2-9.75Z" transform="translate(0.02 -0.14)"/><path class="cls-1" d="M155.46,103.12a8,8,0,0,0-5.61-5.63l-15.36-4.16a7.94,7.94,0,0,0-7.67,2L115.54,106.6a7.93,7.93,0,0,0-2.08,7.66l4.08,15.39a7.94,7.94,0,0,0,5.61,5.62l15.36,4.16a7.94,7.94,0,0,0,7.67-2l11.28-11.22a8,8,0,0,0,2.08-7.67Z" transform="translate(0.02 -0.14)"/><path class="cls-1" d="M151.81,107.55a6,6,0,0,0-3.73-4.68L136.9,98.48a6,6,0,0,0-5.92.9l-9.39,7.48a6,6,0,0,0-2.19,5.58l1.79,11.87a6,6,0,0,0,3.73,4.68l11.18,4.39a6,6,0,0,0,5.92-.89l9.39-7.49a6,6,0,0,0,2.19-5.57Z" transform="translate(0.02 -0.14)"/><path class="cls-1" d="M148.16,112a4.18,4.18,0,0,0-1.86-3.74l-7-4.62a4.18,4.18,0,0,0-4.17-.25l-7.49,3.74a4.19,4.19,0,0,0-2.31,3.49l-.5,8.36a4.18,4.18,0,0,0,1.86,3.74l7,4.62a4.18,4.18,0,0,0,4.17.25l7.49-3.74a4.19,4.19,0,0,0,2.31-3.49Z" transform="translate(0.02 -0.14)"/><path class="cls-1" d="M139.3,107.39h-5.6a2.8,2.8,0,0,0-2.42,1.39l-2.8,4.85a2.8,2.8,0,0,0,0,2.8l2.8,4.84a2.78,2.78,0,0,0,2.42,1.4h5.6a2.78,2.78,0,0,0,2.42-1.4l2.8-4.84a2.8,2.8,0,0,0,0-2.8l-2.8-4.85A2.8,2.8,0,0,0,139.3,107.39Z" transform="translate(0.02 -0.14)"/></svg>